<svg id="Layer_1" data-name="Layer 1" xmlns="http://www.w3.org/2000/svg" viewBox="0 0 360 360"><defs><style>.cls-1{fill:none;}.cls-2{fill:#ee2a7b;}.cls-3{fill:#f7b319;}.cls-4{fill:#2b3087;}</style></defs><title>Artboard 1</title><polygon class="cls-1" points="58.27 267.62 74.03 267.62 74.09 267.52 58.32 267.52 58.27 267.62"/><polygon class="cls-2" points="183.4 267.52 183.43 267.59 183.49 267.52 183.4 267.52"/><path class="cls-3" d="M338,107.28H17.3a8.31,8.31,0,0,0-8.3,8.3V275.92a8.3,8.3,0,0,0,8.3,8.29H78.77a8.3,8.3,0,0,0,7.15-4.09l7.42-12.6H74.09l-.06.1H58.27l0-.1h-19l-.06.1H25.59V123.87H329.68V267.62H284.26a8.26,8.26,0,0,0-6.18,2.78l-44.55,49.93-.12-.21-11.62,13,3.18,5.44a8.31,8.31,0,0,0,6.34,4.06,7.67,7.67,0,0,0,.82.05,8.28,8.28,0,0,0,6.19-2.78L288,284.21h50a8.29,8.29,0,0,0,8.29-8.29V115.58A8.3,8.3,0,0,0,338,107.28Z"/><path class="cls-4" d="M120,242.35V225.76H103.41a8.3,8.3,0,0,0-7.14,4.09L74.09,267.52H93.34l14.82-25.17Z"/><path class="cls-4" d="M202.62,267.52l-58.11-99.26a8.29,8.29,0,0,0-7.16-4.1H101.81a8.29,8.29,0,0,0-7.24,4.25L39.34,267.52h19l48.36-86.78H132.6l50.8,86.78h.09l-.06.07,38.36,65.52,11.62-13Z"/></svg>